<?xml version="1.0" encoding="UTF-8"?>
<svg id="svg2" xmlns="http://www.w3.org/2000/svg" viewBox="0 0 682.67 682.67">
  <defs>
    <style>
      .cls-1 {
        fill: #f2f3f4;
      }

      .cls-2 {
        fill: #001a42;
      }

      .cls-3 {
        fill: #9c0;
      }

      .cls-4 {
        fill: #606060;
      }
    </style>
  </defs>
  <g id="g8">
    <g id="g10">
      <path id="path12" class="cls-2" d="m682.67,682.67H0V0h682.67v682.67"/>
      <path id="path14" class="cls-3" d="m599.73,270.61l-34.93-20.16v55l11.12,6.41c10.79,6.23,17.23,17.39,17.23,29.84s-6.44,23.6-17.23,29.83l-205.97,118.92,47.63,27.49,182.16-105.17c25.69-14.83,41.04-41.4,41.04-71.08s-15.35-56.24-41.04-71.08m-354.71,291.96c-10.77,6.21-23.65,6.21-34.44,0-10.77-6.23-17.21-17.37-17.23-29.84v-237.4l-47.63,27.49v209.91c0,29.68,15.35,56.24,41.04,71.08,25.68,14.84,56.37,14.84,82.07,0l42.47-24.52-47.63-27.49-18.65,10.77Zm-51.68-411.92c0-12.45,6.44-23.6,17.23-29.83,10.79-6.23,23.67-6.24,34.45,0l213.84,123.45v-55l-190.03-109.71c-25.69-14.84-56.37-14.84-82.08,0-25.69,14.83-41.03,41.4-41.03,71.08v49.47l47.63-27.49v-21.97Zm294.84,55.56l-.16-.09v55l.16.09v-55"/>
      <path id="path16" class="cls-1" d="m494.77,79.56c-12.84-7.41-26.93-11.12-41.03-11.12s-28.2,3.71-41.05,11.13l-42.85,24.72,47.64,27.51,19.03-10.99c5.4-3.12,11.31-4.67,17.23-4.67s11.83,1.56,17.23,4.67c10.79,6.23,17.21,17.39,17.23,29.84v110.97l47.63,27.49v-138.48c0-29.67-15.35-56.24-41.04-71.08M105.61,311.87l87.75-50.65v-54.99l-111.55,64.4c-25.69,14.83-41.03,41.4-41.03,71.07s15.33,56.24,41.04,71.08l34.71,20.04v-55l-10.91-6.29c-10.77-6.23-17.21-17.39-17.23-29.84,0-12.44,6.44-23.59,17.21-29.81m382.57,220.87c0,12.45-6.44,23.6-17.23,29.84-5.39,3.11-11.31,4.67-17.21,4.67s-11.83-1.56-17.23-4.67l-95.39-55.07-47.63,27.49,119.19,68.81c12.85,7.43,26.95,11.13,41.03,11.13s28.19-3.71,41.04-11.12c25.71-14.84,41.05-41.4,41.04-71.08v-48.76l-47.61,27.48v21.27"/>
    </g>
  </g>
  <g>
    <g>
      <path class="cls-1" d="m56.31,386.41c-4.14,0-7.5-3.36-7.5-7.5v-75.9h-23.4c-4.14,0-7.5-3.36-7.5-7.5v-14.67c0-4.14,3.36-7.5,7.5-7.5h79.24c4.14,0,7.5,3.36,7.5,7.5v14.67c0,4.14-3.36,7.5-7.5,7.5h-23.4v75.9c0,4.14-3.36,7.5-7.5,7.5h-17.44Z"/>
      <path class="cls-4" d="m104.65,280.84v14.67h-30.9v83.4h-17.44v-83.4h-30.9v-14.67h79.24m0-15H25.41c-8.28,0-15,6.72-15,15v14.67c0,8.28,6.72,15,15,15h15.9v68.4c0,8.28,6.72,15,15,15h17.44c8.28,0,15-6.72,15-15v-68.4h15.9c8.28,0,15-6.72,15-15v-14.67c0-8.28-6.72-15-15-15h0Z"/>
    </g>
    <g>
      <path class="cls-1" d="m163.74,388.98c-28.14,0-47.79-19.01-47.79-46.23,0-29.9,23.43-46.04,45.47-46.04,12.68,0,23.33,4.22,30.81,12.22,7.11,7.6,10.87,18.06,10.87,30.25,0,2.96-.29,6.29-.86,9.88-.58,3.64-3.72,6.33-7.41,6.33h-4.69c1.29.68,2.37,1.72,3.09,3.02l5.93,10.74c1.9,3.44.82,7.76-2.47,9.91-9.8,6.4-21.51,9.92-32.96,9.92Zm-12.08-33.59c2.98,3.46,7.75,5.16,14.35,5.16,5.68,0,10.75-1.51,16.95-5.04.08-.04.16-.09.23-.13h-31.53Zm19.09-27.24c-.17-.22-.35-.43-.54-.62-2.06-2.06-5.64-2.49-8.28-2.49-3.61,0-6.61,1.08-8.9,3.11h17.72Z"/>
      <path class="cls-4" d="m161.42,304.22c21.99,0,34.18,14.59,34.18,34.97,0,3.46-.47,6.82-.77,8.71h-54.12c-.14-1.02-.25-2.14-.3-3.36-.03-.58-.04-1.18-.04-1.79s.01-1.2.04-1.79c.09-1.98.33-3.76.62-5.31h42.6-3.49c.03-12.02-6.67-18.11-18.2-18.11s-20.87,8.13-21.53,23.42c0,0,0,0,0,0-.06,1.26-.05,2.45,0,3.57.7,15.92,10.82,23.52,25.6,23.52,7.71,0,14.06-2.26,20.66-6.02l5.93,10.74c-7.86,5.13-18.04,8.7-28.86,8.7-22.56,0-40.29-14.21-40.29-38.73s18.25-38.54,37.97-38.54m0-15c-13.84,0-26.87,5.1-36.67,14.35-10.51,9.92-16.3,23.83-16.3,39.19s5.89,29.89,16.57,39.64c9.96,9.09,23.71,14.09,38.71,14.09,12.89,0,26.05-3.96,37.06-11.14,6.58-4.29,8.73-12.94,4.93-19.81l-2.77-5.03c3.49-2.25,6.01-5.92,6.69-10.27.63-3.98.95-7.7.95-11.06,0-14.13-4.46-26.36-12.89-35.38-8.93-9.55-21.48-14.59-36.29-14.59h0Z"/>
    </g>
    <g>
      <path class="cls-1" d="m245.43,388.21c-13.77,0-28.47-4.63-40.34-12.7-1.65-1.12-2.78-2.85-3.15-4.81-.37-1.96.06-3.98,1.18-5.63l7.57-11.06c1.45-2.12,3.8-3.26,6.19-3.26,1.43,0,2.87.41,4.14,1.25,8.2,5.45,16.93,8.1,26.67,8.1,3.69,0,5.84-.63,6.88-1.14-1.59-.78-5.29-2.11-13.8-3.87-11.08-2.32-19.14-5.57-24.68-9.93-6.43-5.06-9.68-11.69-9.68-19.7,0-13.62,10.42-29.52,39.78-29.52,15.99,0,28.77,6.88,34.97,10.99,1.72,1.14,2.9,2.94,3.25,4.97.35,2.04-.15,4.12-1.39,5.78l-7.98,10.65c-1.47,1.96-3.72,3-6.01,3-1.39,0-2.8-.39-4.06-1.19-6.19-3.98-13.41-6.18-20.33-6.18-1.93,0-3.3.18-4.26.41,3.36,1.18,9.03,2.4,11.56,2.95,21.98,4.85,35.58,11.64,35.58,30.49,0,15.13-13.02,30.41-42.1,30.41Z"/>
      <path class="cls-4" d="m246.19,303.44c12.2,0,23.35,4.79,30.83,9.74l-7.98,10.65c-7.14-4.59-15.65-7.37-24.39-7.37-9.55,0-13.5,3.68-13.5,8.19,0,5.2,5.42,7.02,19.21,10,23.54,5.19,29.67,11.47,29.67,23.16,0,12.67-12.21,22.91-34.6,22.91-13.75,0-27-5.2-36.12-11.4l7.57-11.06c8.79,5.83,18.85,9.35,30.82,9.35,10.21,0,15-3.89,15-8.77s-3.23-7.52-20.39-11.08c-19.65-4.12-28.39-11.07-28.39-22.29,0-12.8,11.67-22.02,32.28-22.02m0-15c-32.66,0-47.28,18.59-47.28,37.02,0,8.24,2.79,15.56,8.12,21.47-.94.82-1.79,1.77-2.53,2.85l-7.57,11.06c-2.25,3.29-3.1,7.34-2.36,11.26s3.01,7.38,6.31,9.62c13.08,8.89,29.32,14,44.56,14,13.74,0,25.62-3.27,34.36-9.46,9.68-6.85,15.24-17.22,15.24-28.45s-3.86-19.34-11.48-25.6c-.42-.34-.84-.68-1.28-1.01l6.76-9.02c2.48-3.3,3.48-7.48,2.78-11.55s-3.06-7.67-6.5-9.95c-6.9-4.57-21.16-12.23-39.11-12.23h0Z"/>
    </g>
    <g>
      <path class="cls-1" d="m348.69,388.21c-17.19,0-37.68-6.75-37.68-38.92v-22.81h-12.21c-4.14,0-7.5-3.36-7.5-7.5v-12.93c0-4.03,3.18-7.34,7.2-7.49l13.9-.55,1.62-16.56c.38-3.84,3.6-6.77,7.46-6.77h14.37c4.14,0,7.5,3.36,7.5,7.5v15.57h26c4.14,0,7.5,3.36,7.5,7.5v13.74c0,4.14-3.36,7.5-7.5,7.5h-26v22.74c0,4.13.63,6.99,1.82,8.27,1.45,1.55,4.98,1.88,7.69,1.88,4.46,0,8.62-.78,13.48-2.53.82-.3,1.68-.44,2.54-.44,1.2,0,2.4.29,3.48.86,1.86.97,3.23,2.68,3.77,4.71l3.36,12.62c1.02,3.84-1.12,7.81-4.89,9.05-6.83,2.26-15.25,4.56-25.92,4.56Z"/>
      <path class="cls-4" d="m335.85,282.17v23.07h33.5v13.74h-33.5v30.24c0,12.17,4.57,17.65,17.02,17.65,6.14,0,11.21-1.24,16.02-2.97l3.36,12.62c-6.6,2.18-14.03,4.18-23.57,4.18-22.51,0-30.18-12.65-30.18-31.42v-30.31h-19.71v-12.93l20.43-.81,2.26-23.07h14.37m0-15h-14.37c-7.72,0-14.18,5.86-14.93,13.54l-.98,10.05-7.37.29c-8.05.32-14.41,6.93-14.41,14.99v12.93c0,8.28,6.72,15,15,15h4.71v15.31c0,29.5,16.47,46.42,45.18,46.42,11.73,0,20.88-2.5,28.27-4.94,7.54-2.49,11.83-10.43,9.79-18.1l-3.36-12.62c-1.08-4.06-3.81-7.48-7.53-9.43-2.17-1.14-4.56-1.71-6.96-1.71-1.71,0-3.43.29-5.08.88-4.06,1.46-7.34,2.08-10.95,2.08-.78,0-1.41-.03-1.89-.08-.07-.61-.12-1.45-.12-2.57v-15.24h18.5c8.28,0,15-6.72,15-15v-13.74c0-8.28-6.72-15-15-15h-18.5v-8.07c0-8.28-6.72-15-15-15h0Z"/>
    </g>
    <g>
      <path class="cls-1" d="m425.28,388.21c-15.64,0-30.42-5.81-41.61-16.37-2.9-2.73-3.16-7.25-.58-10.3l10.14-12c1.31-1.55,3.19-2.5,5.21-2.64.17-.01.34-.02.51-.02,1.84,0,3.63.68,5.01,1.92,6.63,5.96,14.57,9.24,22.35,9.24,4.59,0,9.95-1.14,9.95-4.37,0-2.76-.82-3.64-10.23-7.58l-1.47-.62-13.42-5.84c-16.49-6.47-25.57-18.16-25.57-32.94,0-20.03,17.87-35.14,41.57-35.14,13.74,0,27.09,5.32,36.63,14.6,2.77,2.7,3.04,7.06.61,10.08l-8.91,11.07c-1.48,1.84-3.65,2.8-5.85,2.8-1.64,0-3.29-.53-4.67-1.63-6.09-4.85-11.32-6.74-18.65-6.74-1.9,0-8.08.28-8.08,3.94,0,2.11,4.64,4.05,11.21,6.56l.7.27c.1.04.21.08.31.13l12.72,5.54c17.47,6.76,25.96,17.67,25.96,33.35,0,10.23-4.33,19.56-12.21,26.28-7.99,6.82-18.93,10.42-31.63,10.42Z"/>
      <path class="cls-4" d="m427.14,279.04c12.02,0,23.37,4.67,31.4,12.48l-8.91,11.07c-6.67-5.31-13.45-8.38-23.32-8.38-9.31,0-15.58,4.19-15.58,11.44,0,7.63,7.83,10.42,16.72,13.83l12.86,5.6c12.48,4.8,21.31,12.25,21.31,26.41,0,15.93-13.42,29.21-36.34,29.21-13.79,0-26.85-5.26-36.47-14.33l10.14-12c7.44,6.69,17.09,11.16,27.37,11.16,11.41,0,17.45-5.02,17.45-11.87,0-8.74-6.71-11.08-16.28-15.11l-13.48-5.86c-10.3-4.01-20.93-11.62-20.93-26.01,0-15.6,14.05-27.64,34.07-27.64m0-15c-27.97,0-49.07,18.33-49.07,42.64,0,8.46,2.57,22.54,17.44,33.09-3.11.73-5.93,2.45-8.02,4.92l-10.14,12c-5.14,6.09-4.63,15.13,1.17,20.6,12.6,11.87,29.2,18.41,46.76,18.41,14.52,0,27.14-4.23,36.5-12.22,9.57-8.17,14.84-19.53,14.84-31.98,0-10.43-3.29-19.41-9.77-26.69-2.93-3.29-6.47-6.18-10.7-8.71,1.94-.94,3.72-2.31,5.16-4.1l8.91-11.07c4.85-6.03,4.32-14.76-1.23-20.16-10.93-10.63-26.19-16.73-41.86-16.73h0Z"/>
    </g>
    <g>
      <path class="cls-1" d="m490.56,416.6c-4.4,0-8.92-.65-12.72-1.84-3.77-1.18-5.98-5.09-5.05-8.93l3.27-13.42c.49-2.01,1.78-3.73,3.58-4.75,1.14-.65,2.42-.98,3.71-.98.74,0,1.48.11,2.21.33,1.37.42,2.81.66,3.95.66,5.3,0,8.53-2.33,10.77-7.79l.62-1.62-31.72-69.92c-1.05-2.32-.86-5.02.53-7.16s3.76-3.44,6.3-3.44h17.33c3.02,0,5.75,1.82,6.92,4.61l15.06,36.01c.4.98.8,1.98,1.2,3,.29-.85.9-2.64.92-2.7l13.27-36.01c1.09-2.95,3.9-4.91,7.04-4.91h16.51c2.49,0,4.81,1.23,6.21,3.29,1.4,2.06,1.68,4.68.76,6.99l-30.74,76.98c-5.65,14.72-15.29,31.6-39.92,31.6Z"/>
      <path class="cls-4" d="m554.26,305.24l-30.76,77.03c-6.34,16.55-15.19,26.83-32.94,26.83-3.89,0-7.6-.6-10.48-1.5l3.27-13.42c1.95.6,4.13,1,6.16,1,9.37,0,14.75-5.18,17.75-12.53l1.77-4.63-33.02-72.77h17.33l15.06,36.01c2.74,6.73,5.5,14.32,8.17,21.75h.6c2.27-7.17,4.96-14.82,7.3-21.75l13.27-36.01h16.51m0-15h-16.51c-6.28,0-11.9,3.92-14.07,9.81l-7.61,20.65-8.88-21.25c-2.33-5.58-7.79-9.21-13.84-9.21h-17.33c-5.1,0-9.85,2.59-12.61,6.88-2.76,4.29-3.16,9.68-1.05,14.32l30.37,66.94c-.98,1.8-1.81,1.8-3.21,1.8-.27,0-.96-.09-1.75-.33-1.44-.44-2.93-.66-4.41-.66-2.57,0-5.13.66-7.41,1.96-3.59,2.04-6.19,5.48-7.16,9.49l-3.27,13.42c-1.87,7.69,2.55,15.5,10.1,17.86,4.57,1.43,9.74,2.18,14.96,2.18,32.85,0,43.41-27.25,46.9-36.37l30.72-76.93c1.85-4.62,1.28-9.86-1.51-13.98-2.79-4.12-7.44-6.59-12.42-6.59h0Z"/>
    </g>
    <g>
      <path class="cls-1" d="m605.42,388.21c-13.77,0-28.47-4.63-40.34-12.7-1.65-1.12-2.78-2.85-3.15-4.81-.37-1.96.06-3.98,1.18-5.63l7.57-11.06c1.45-2.12,3.8-3.26,6.2-3.26,1.43,0,2.87.41,4.14,1.25,8.2,5.45,16.93,8.1,26.67,8.1,3.7,0,5.84-.63,6.88-1.14-1.59-.78-5.29-2.11-13.8-3.87-11.07-2.32-19.14-5.57-24.68-9.93-6.43-5.06-9.68-11.69-9.68-19.7,0-13.62,10.42-29.52,39.78-29.52,15.99,0,28.77,6.88,34.97,10.99,1.72,1.14,2.9,2.94,3.25,4.97.35,2.04-.15,4.12-1.39,5.78l-7.98,10.65c-1.47,1.96-3.72,3-6.01,3-1.39,0-2.8-.39-4.06-1.19-6.19-3.98-13.41-6.18-20.33-6.18-1.93,0-3.3.18-4.26.41,3.36,1.18,9.03,2.4,11.56,2.95,21.98,4.85,35.58,11.64,35.58,30.49,0,15.13-13.02,30.41-42.1,30.41Z"/>
      <path class="cls-4" d="m606.19,303.44c12.2,0,23.35,4.79,30.83,9.74l-7.98,10.65c-7.14-4.59-15.65-7.37-24.39-7.37-9.55,0-13.5,3.68-13.5,8.19,0,5.2,5.42,7.02,19.21,10,23.54,5.19,29.67,11.47,29.67,23.16,0,12.67-12.21,22.91-34.6,22.91-13.75,0-27-5.2-36.12-11.4l7.57-11.06c8.79,5.83,18.85,9.35,30.82,9.35,10.21,0,15-3.89,15-8.77s-3.24-7.52-20.39-11.08c-19.65-4.12-28.39-11.07-28.39-22.29,0-12.8,11.67-22.02,32.28-22.02m0-15c-32.66,0-47.28,18.59-47.28,37.02,0,8.24,2.79,15.56,8.12,21.47-.94.82-1.79,1.77-2.53,2.85l-7.57,11.06c-2.25,3.29-3.1,7.34-2.36,11.26.74,3.92,3.01,7.38,6.31,9.62,13.08,8.89,29.32,14,44.56,14,13.74,0,25.62-3.27,34.36-9.46,9.68-6.85,15.24-17.22,15.24-28.45s-3.86-19.34-11.48-25.6c-.42-.34-.84-.68-1.28-1.01l6.76-9.02c2.48-3.3,3.48-7.48,2.78-11.55s-3.06-7.67-6.5-9.95c-6.9-4.57-21.16-12.23-39.11-12.23h0Z"/>
    </g>
  </g>
</svg>